<mxfile host="app.diagrams.net" modified="2020-11-23T19:20:37.310Z" agent="5.0 (Windows NT 10.0; Win64; x64) AppleWebKit/537.36 (KHTML, like Gecko) Chrome/86.0.4240.198 Safari/537.36" etag="k9LR1rEhCUAt9k6fv9iI" version="13.1.5" type="github">
  <diagram id="bTgSsePA10s61gYjHdQO" name="Page-1">
    <mxGraphModel dx="1602" dy="889" grid="1" gridSize="10" guides="1" tooltips="1" connect="1" arrows="1" fold="1" page="1" pageScale="1" pageWidth="850" pageHeight="1100" math="0" shadow="0">
      <root>
        <mxCell id="0" />
        <mxCell id="1" parent="0" />
        <mxCell id="qMB9G1cl1bZ-sTiWWD3Z-2" value="" style="rounded=1;whiteSpace=wrap;html=1;" parent="1" vertex="1">
          <mxGeometry x="111.5" y="175.5" width="350.5" height="184.5" as="geometry" />
        </mxCell>
        <mxCell id="qMB9G1cl1bZ-sTiWWD3Z-1" value="" style="rounded=1;whiteSpace=wrap;html=1;" parent="1" vertex="1">
          <mxGeometry x="260" y="235.5" width="70" height="105.5" as="geometry" />
        </mxCell>
        <mxCell id="qMB9G1cl1bZ-sTiWWD3Z-5" value="" style="shape=mxgraph.signs.transportation.truck_1;html=1;pointerEvents=1;fillColor=#d5e8d4;strokeColor=#82b366;verticalLabelPosition=bottom;verticalAlign=top;align=center;" parent="1" vertex="1">
          <mxGeometry x="130.5" y="290" width="99" height="51" as="geometry" />
        </mxCell>
        <mxCell id="qMB9G1cl1bZ-sTiWWD3Z-6" value="" style="shape=mxgraph.signs.transportation.forklift;html=1;pointerEvents=1;verticalLabelPosition=bottom;verticalAlign=top;align=center;fillColor=#f5f5f5;strokeColor=#666666;fontColor=#333333;" parent="1" vertex="1">
          <mxGeometry x="364" y="290" width="52.94" height="47" as="geometry" />
        </mxCell>
        <mxCell id="qMB9G1cl1bZ-sTiWWD3Z-7" value="" style="ellipse;whiteSpace=wrap;html=1;aspect=fixed;fillColor=#f5f5f5;strokeColor=#666666;fontColor=#333333;" parent="1" vertex="1">
          <mxGeometry x="210" y="200" width="30" height="30" as="geometry" />
        </mxCell>
        <mxCell id="qMB9G1cl1bZ-sTiWWD3Z-8" value="" style="ellipse;whiteSpace=wrap;html=1;aspect=fixed;fillColor=#d5e8d4;strokeColor=#82b366;" parent="1" vertex="1">
          <mxGeometry x="210" y="235.5" width="30" height="30" as="geometry" />
        </mxCell>
        <mxCell id="qMB9G1cl1bZ-sTiWWD3Z-9" value="" style="ellipse;whiteSpace=wrap;html=1;aspect=fixed;fillColor=#f8cecc;strokeColor=#b85450;" parent="1" vertex="1">
          <mxGeometry x="350" y="200" width="30" height="30" as="geometry" />
        </mxCell>
        <mxCell id="qMB9G1cl1bZ-sTiWWD3Z-10" value="" style="ellipse;whiteSpace=wrap;html=1;aspect=fixed;fillColor=#f5f5f5;strokeColor=#666666;fontColor=#333333;" parent="1" vertex="1">
          <mxGeometry x="350" y="235.5" width="30" height="30" as="geometry" />
        </mxCell>
      </root>
    </mxGraphModel>
  </diagram>
</mxfile>
